<svg xmlns="http://www.w3.org/2000/svg" viewBox="0 0 512 512" style="background-color:#581c87;border-radius:20%">
  <path d="M256 0c-23.3 0-43.7 15.6-49.6 38l-42 160h-57.2c-29.6 0-51.5 28.3-43 56.6L143.4 416h62.5l-20.9 80c-5.9 22.4 14.5 44 43 44 14.1 0 27.2-7.1 35-19.1L405.8 256h-57.2c29.6 0 51.5-28.3 43-56.6L312.6 32h-56.6z" fill="#a855f7" />
  <path d="M366.5 240h-86.3l69.8-191.6c5.7-15.6-5.9-32.4-22.5-32.4h-99c-11.2 0-21.2 7.7-23.7 18.7L138.7 240h61.8l-72.3 227.6c-5.7 18-3.4 34.6 15.1 34.6 11.2 0 21.2-7.7 23.7-18.7l59.8-163.5h91c13.3 0 25.4-8.7 28.5-21.6l26.8-93.5c4-14.1-6.6-28.9-21.1-28.9z" fill="#ffffff" />
</svg>
